<?xml version="1.0" encoding="utf-8"?>
<!-- Generator: Adobe Illustrator 23.1.1, SVG Export Plug-In . SVG Version: 6.00 Build 0)  -->
<svg version="1.1" id="Layer_1" xmlns="http://www.w3.org/2000/svg" xmlns:xlink="http://www.w3.org/1999/xlink" x="0px" y="0px"
	 viewBox="0 0 24 24" style="enable-background:new 0 0 24 24;" xml:space="preserve">
<style type="text/css">
	.st0{fill:#21AB67;}
</style>
<path class="st0" d="M16.4,2.6c-2.9,0-5.2,2.3-5.2,5.2c0,0.2,0,0.3,0.1,0.5C7.7,8,4.6,6.3,2.5,3.7C2.4,3.5,2.2,3.5,2,3.5
	c-0.2,0-0.3,0.1-0.4,0.2C1.2,4.5,1,5.4,1,6.3c0,1.2,0.4,2.2,1,3.1C1.9,9.4,1.8,9.3,1.6,9.3c-0.1-0.1-0.3-0.1-0.5,0
	C1,9.4,0.9,9.5,0.9,9.7v0.1c0,1.8,0.9,3.3,2.3,4.2c0,0,0,0,0,0c-0.2,0-0.3,0-0.4,0.2c-0.1,0.1-0.1,0.3-0.1,0.5
	c0.5,1.7,1.9,2.9,3.6,3.4c-1.4,0.8-2.9,1.3-4.6,1.3c-0.4,0-0.7,0-1.1-0.1c-0.2,0-0.4,0.1-0.5,0.3c-0.1,0.2,0,0.5,0.2,0.6
	c2.2,1.4,4.7,2.2,7.5,2.2c4.5,0,8-1.9,10.3-4.5s3.6-6.1,3.6-9.4c0-0.1,0-0.3,0-0.4c0.9-0.7,1.7-1.5,2.3-2.4C24,5.4,24,5.2,23.9,5
	c-0.1-0.2-0.4-0.2-0.6-0.1C23.1,5,22.8,5,22.5,5.1c0.3-0.5,0.6-0.9,0.8-1.5c0.1-0.2,0-0.4-0.2-0.5C23,3,22.8,2.9,22.6,3
	c-0.8,0.5-1.7,0.8-2.7,1C19,3.2,17.8,2.6,16.4,2.6z M16.4,3.6c1.2,0,2.3,0.5,3.1,1.3c0.1,0.1,0.3,0.2,0.5,0.1
	c0.6-0.1,1.2-0.3,1.8-0.5C21.4,5,21,5.4,20.5,5.7c-0.2,0.1-0.3,0.4-0.2,0.6c0.1,0.2,0.3,0.4,0.6,0.3c0.5-0.1,0.9-0.3,1.4-0.4
	c-0.4,0.4-0.9,0.8-1.4,1.2c-0.1,0.1-0.2,0.3-0.2,0.4c0,0.2,0,0.4,0,0.6c0,3-1.2,6.3-3.3,8.7s-5.4,4.2-9.6,4.2
	c-1.9,0-3.7-0.4-5.4-1.2c2-0.2,3.9-0.9,5.4-2.1C7.9,18,8,17.8,7.9,17.6c-0.1-0.2-0.2-0.3-0.4-0.3c-1.6,0-2.9-0.9-3.6-2.2
	c0,0,0,0,0.1,0c0.5,0,0.9-0.1,1.4-0.2c0.2-0.1,0.4-0.3,0.3-0.5c0-0.2-0.2-0.4-0.4-0.5c-1.7-0.3-3-1.7-3.3-3.5c0.5,0.2,1,0.3,1.5,0.3
	c0.2,0,0.4-0.1,0.5-0.3c0.1-0.2,0-0.4-0.2-0.6C2.7,9.1,1.9,7.8,1.9,6.3c0-0.5,0.1-1,0.3-1.5C4.7,7.4,8,9.2,11.8,9.4
	c0.2,0,0.3-0.1,0.4-0.2c0.1-0.1,0.1-0.3,0.1-0.4c-0.1-0.3-0.1-0.6-0.1-1C12.2,5.5,14.1,3.6,16.4,3.6z"/>
</svg>
